<?xml version="1.0" standalone="no"?>
<!DOCTYPE svg PUBLIC "-//W3C//DTD SVG 20010904//EN"
 "http://www.w3.org/TR/2001/REC-SVG-20010904/DTD/svg10.dtd">
<svg version="1.0" xmlns="http://www.w3.org/2000/svg"
 width="800.000000pt" height="540.000000pt" viewBox="0 0 800.000000 540.000000"
 preserveAspectRatio="xMidYMid meet">

<g transform="translate(0.000000,540.000000) scale(0.100000,-0.100000)"
fill="#000000" stroke="none">
<path d="M6192 5101 c-66 -42 -50 -75 31 -68 32 3 56 11 70 25 29 29 14 39
-19 13 -27 -21 -94 -29 -94 -11 0 5 11 17 25 26 29 19 137 16 157 -4 16 -16
-15 -49 -53 -57 -16 -4 -29 -11 -29 -16 0 -26 87 13 102 46 18 40 -6 57 -89
62 -56 4 -74 1 -101 -16z"/>
<path d="M6001 4974 c-63 -69 -131 -206 -196 -394 -137 -394 -305 -613 -524
-681 -57 -17 -81 -19 -171 -13 -124 7 -214 -7 -230 -36 -24 -45 49 -143 165
-223 152 -106 198 -127 68 -31 -284 207 -285 345 -3 204 139 -70 221 -190 242
-354 9 -74 13 -85 21 -65 11 30 3 145 -14 184 -22 51 -97 151 -141 190 -24 20
-79 54 -123 76 l-80 39 95 -6 c111 -7 168 4 257 48 189 93 335 308 469 690 56
161 109 270 175 361 27 37 47 67 45 67 -2 0 -27 -25 -55 -56z"/>
<path d="M6118 4953 c-39 -42 -48 -66 -48 -126 0 -59 17 -120 31 -112 4 3 4
17 -1 31 -13 34 -13 120 1 147 6 12 25 37 42 55 21 22 26 32 16 32 -8 0 -27
-12 -41 -27z"/>
<path d="M6470 4970 c0 -7 12 -28 26 -47 41 -53 48 -95 29 -158 -23 -72 -15
-107 9 -37 26 77 24 131 -7 184 -30 51 -57 78 -57 58z"/>
<path d="M6408 4828 c-17 -60 -16 -87 1 -59 9 15 24 111 19 117 -2 2 -11 -25
-20 -58z"/>
<path d="M6260 4714 c-82 -50 -153 -114 -176 -156 -20 -38 -17 -87 6 -125 27
-46 33 -41 7 6 -19 34 -20 43 -9 79 16 52 89 133 155 171 53 31 107 70 97 71
-3 0 -39 -21 -80 -46z"/>
<path d="M6430 4748 c0 -3 7 -22 15 -41 19 -45 19 -127 1 -170 -7 -18 -29 -53
-50 -80 -44 -57 -48 -75 -6 -27 82 94 106 171 78 251 -10 32 -38 80 -38 67z"/>
<path d="M6176 4553 c22 -90 52 -143 81 -143 10 0 7 9 -11 30 -14 17 -31 50
-37 73 -6 23 -13 48 -15 55 -7 26 -24 11 -18 -15z"/>
<path d="M5864 4429 c-54 -20 -89 -127 -104 -321 -15 -195 -34 -249 -119 -344
-138 -154 -211 -326 -237 -557 -20 -184 -6 -337 51 -554 21 -79 23 -100 14
-152 -30 -187 -127 -394 -277 -586 -77 -100 -189 -225 -202 -225 -17 0 71 431
140 682 42 153 57 183 113 213 34 19 50 45 27 45 -29 0 -234 -92 -270 -121
-128 -102 -725 -881 -1059 -1382 -317 -475 -455 -737 -389 -737 5 0 40 -14 78
-30 38 -17 75 -27 84 -24 20 8 20 9 0 40 -23 34 -14 137 22 234 102 285 475
861 889 1375 184 229 268 325 284 325 10 0 12 -16 6 -83 -10 -131 -33 -318
-61 -507 l-26 -175 -39 -38 c-45 -44 -48 -64 -20 -137 l19 -51 -33 -198 c-49
-291 -67 -421 -61 -437 9 -24 36 -16 105 33 98 69 110 81 152 166 57 112 168
273 348 501 87 111 263 336 392 502 129 165 238 300 244 300 5 -1 20 -39 32
-86 12 -47 35 -121 51 -165 l28 -79 -38 -119 c-30 -96 -113 -414 -133 -513 -6
-26 -9 -27 -195 -55 -97 -15 -195 -22 -298 -23 -129 -1 -149 -3 -125 -13 48
-21 234 -15 404 12 87 13 168 27 183 31 24 6 25 5 19 -33 -3 -21 -7 -39 -8
-41 -1 -1 -33 4 -71 12 -38 8 -70 13 -72 11 -5 -5 106 -45 124 -45 8 0 16 -6
18 -12 2 -7 9 -32 15 -54 43 -160 232 -146 552 42 84 49 89 50 89 30 0 -25 50
-74 88 -87 49 -17 167 -13 244 6 188 49 458 230 617 415 63 73 72 90 46 90 -8
0 -15 -4 -15 -9 0 -4 -39 -50 -87 -100 -200 -213 -420 -341 -586 -341 -129 0
-174 72 -151 244 6 44 8 46 39 46 42 0 73 25 141 116 66 88 123 139 182 165
54 23 52 23 52 -1 0 -30 -51 -81 -122 -123 -53 -31 -102 -77 -82 -77 3 0 43
24 89 54 91 60 135 108 136 152 0 23 9 35 47 59 96 62 121 152 52 188 -76 39
-209 5 -328 -85 l-63 -48 -75 30 c-155 62 -304 151 -408 244 l-50 44 23 63
c13 35 32 87 43 116 l19 52 57 -38 c31 -21 79 -46 105 -55 57 -19 148 -20 199
-2 30 11 52 11 125 0 110 -16 306 -34 353 -33 34 1 33 2 -10 10 -25 5 -106 16
-180 24 -74 8 -154 18 -178 21 l-43 6 50 52 c45 49 78 101 101 162 18 47 -7
15 -39 -50 -34 -70 -119 -156 -153 -156 -45 0 -310 119 -346 155 -5 5 67 174
110 257 57 110 98 151 183 182 91 34 105 43 86 55 -9 6 -56 -5 -140 -34 -146
-50 -331 -122 -347 -136 -8 -7 -25 3 -52 30 -56 56 -61 78 -26 107 l29 24 -24
20 c-36 31 -126 20 -138 -16 -6 -19 52 -37 77 -24 12 6 19 14 17 17 -3 3 -13
1 -23 -5 -18 -10 -54 -5 -54 9 0 4 18 13 41 19 34 9 45 8 66 -6 l26 -17 -36
-21 c-25 -16 -33 -26 -27 -36 13 -22 4 -118 -15 -146 -22 -33 -4 -60 19 -28
14 18 15 18 21 -8 7 -29 7 -30 -69 -126 -27 -34 -52 -60 -56 -57 -7 5 -36 120
-49 200 l-9 50 -1 -50 c0 -27 8 -93 19 -145 l19 -95 -43 -55 c-24 -30 -48 -54
-52 -54 -13 2 -33 156 -43 319 l-8 140 -1 -150 c-1 -134 7 -250 23 -325 6 -27
26 0 -453 -613 -85 -108 -157 -196 -159 -194 -12 12 107 307 193 480 24 48 43
87 41 87 -8 0 -97 -140 -127 -199 -17 -35 -60 -148 -95 -253 -60 -176 -69
-196 -121 -259 -34 -44 -60 -67 -67 -62 -11 6 -162 126 -180 143 -5 4 -3 54 4
111 l12 104 62 65 c257 271 403 522 450 773 15 82 15 86 -9 183 -73 289 -78
463 -19 704 26 107 109 212 221 277 24 14 41 28 38 31 -8 7 -112 -58 -163
-102 l-45 -40 22 45 c28 56 81 129 144 198 79 87 98 152 111 362 14 237 75
331 161 248 38 -37 45 -28 11 13 -27 33 -65 48 -93 37z m386 -1756 c-8 -14
-20 -28 -26 -30 -13 -4 -24 60 -16 90 4 17 7 16 31 -7 24 -25 25 -28 11 -53z
m30 -80 c0 -5 -5 -26 -11 -47 -8 -29 -13 -36 -20 -25 -12 20 -11 53 3 67 13
13 28 16 28 5z m-46 -88 c14 -33 13 -42 -10 -123 -15 -48 -30 -102 -36 -119
-5 -18 -13 -33 -17 -33 -8 0 -62 104 -75 146 -5 15 8 37 54 92 34 40 63 72 65
72 3 0 11 -16 19 -35z m197 -155 c35 -26 156 -81 229 -105 51 -17 53 -19 30
-27 -69 -26 -208 12 -289 80 -30 25 -32 31 -22 50 14 27 16 27 52 2z m-325
-62 c19 -40 40 -79 46 -86 8 -8 -5 -55 -42 -163 -37 -105 -56 -146 -62 -136
-12 22 -75 245 -82 292 -5 37 -2 45 44 103 28 34 52 62 55 62 2 0 21 -33 41
-72z m299 -354 c76 -57 197 -123 300 -164 44 -18 82 -33 83 -35 2 -2 -20 -32
-50 -67 -58 -69 -107 -137 -143 -199 l-22 -40 -53 58 c-29 32 -78 91 -108 131
-30 39 -56 72 -59 72 -14 0 111 -174 170 -237 l40 -42 -22 -59 c-12 -33 -28
-93 -35 -133 l-12 -74 -95 -48 c-109 -57 -201 -72 -255 -44 l-29 15 34 9 c45
12 80 71 63 108 -12 26 -63 45 -119 45 -25 0 -33 4 -33 18 0 21 56 293 71 346
l11 39 45 -84 c87 -162 177 -313 180 -302 2 5 -23 56 -56 111 -34 56 -83 147
-111 202 -49 97 -50 102 -39 143 13 50 99 319 106 330 3 4 21 -6 41 -23 20
-17 64 -51 97 -76z m683 -109 c6 -30 -7 -79 -31 -108 l-22 -28 -66 16 c-101
26 -102 28 -39 86 57 52 101 71 135 59 11 -4 22 -15 23 -25z m-152 -132 c35
-9 64 -21 64 -25 0 -17 -212 -99 -225 -86 -6 6 77 128 87 128 5 0 39 -8 74
-17z m-69 -170 c-97 -121 -131 -153 -161 -153 -14 0 -26 2 -26 5 0 16 63 166
71 171 6 3 47 16 92 29 45 12 83 23 84 24 2 0 -25 -34 -60 -76z m-2058 -75
c-1 -13 -5 -36 -9 -53 l-7 -30 -11 28 c-20 48 -14 77 15 77 7 0 12 -10 12 -22z
m223 -115 c38 -32 77 -64 85 -70 14 -11 9 -22 -41 -87 -31 -41 -75 -94 -96
-118 -47 -51 -60 -43 -60 40 0 39 4 52 14 52 8 0 17 -4 20 -9 3 -5 21 -14 38
-20 27 -9 30 -8 17 2 -8 6 -30 24 -48 40 l-33 27 7 100 c4 57 12 100 17 100 6
0 42 -26 80 -57z m1155 -149 c27 -36 -20 -94 -76 -94 -25 0 -61 97 -43 115 12
12 106 -4 119 -21z"/>
<path d="M6306 4425 c-11 -8 -16 -15 -10 -15 5 0 18 7 28 15 11 8 16 15 10 15
-5 0 -18 -7 -28 -15z"/>
<path d="M6410 4390 l-25 -8 26 -1 c14 -1 33 -7 44 -15 16 -12 17 -18 6 -62
-6 -27 -35 -96 -63 -153 l-51 -104 -19 34 -18 34 6 -37 c14 -84 8 -115 -27
-150 -29 -30 -33 -30 -100 -26 -71 5 -94 -5 -36 -17 71 -14 70 -13 17 -67 -94
-96 -122 -199 -84 -312 16 -46 16 -122 -1 -251 l-5 -40 15 45 c25 72 30 187
11 252 -21 74 -20 133 4 186 22 48 80 121 121 151 l28 21 -20 -58 c-44 -125
-78 -292 -83 -405 l-5 -112 13 105 c25 190 104 470 145 514 11 12 25 41 31 66
7 24 19 54 27 65 15 19 15 19 10 -5 -17 -77 -29 -215 -24 -280 12 -152 68
-266 162 -328 l46 -31 -48 -7 c-26 -4 -73 -15 -103 -26 -56 -19 -160 -83 -160
-99 0 -5 20 6 44 25 74 56 162 81 291 81 106 0 215 -18 215 -35 0 -21 -211
-81 -345 -99 -38 -4 -56 -9 -38 -10 80 -3 314 44 375 75 15 8 28 23 28 33 0
24 -34 37 -137 55 -179 31 -272 126 -304 310 -22 130 10 366 67 497 46 104 52
151 25 178 -23 23 -24 23 -61 11z"/>
<path d="M5853 4168 c-106 -113 -71 -248 65 -248 41 0 83 22 64 34 -6 3 -13 2
-17 -4 -3 -5 -27 -10 -51 -10 -37 0 -51 6 -75 29 -49 50 -36 132 34 209 11 12
18 22 16 22 -3 0 -19 -15 -36 -32z"/>
<path d="M5930 4180 c-11 -8 -9 -9 10 -5 35 8 74 -8 106 -44 25 -29 28 -30 55
-16 38 20 119 19 147 -1 13 -9 25 -14 28 -11 3 3 -11 15 -31 27 -39 24 -109
29 -145 10 -18 -10 -25 -8 -43 8 -40 37 -98 51 -127 32z"/>
<path d="M1680 3871 c-108 -35 -107 -33 -505 -397 -288 -263 -452 -426 -650
-644 -176 -195 -235 -271 -235 -306 0 -15 14 -29 49 -47 27 -15 53 -27 58 -27
6 0 10 24 10 53 -1 88 78 212 285 449 190 217 769 758 811 758 22 0 -8 -118
-97 -379 -52 -152 -128 -375 -169 -496 -91 -266 -93 -275 -70 -275 10 0 46 13
79 29 48 23 73 44 116 97 84 104 150 168 573 549 578 521 610 547 584 478 -17
-46 -114 -231 -199 -383 -156 -278 -269 -531 -277 -621 -11 -116 34 -156 166
-146 133 9 406 115 376 145 -2 2 -44 -13 -92 -34 -77 -34 -98 -39 -166 -39
-74 0 -80 2 -103 28 -48 55 -29 147 80 387 112 248 300 578 403 705 61 75 100
101 163 110 28 4 53 12 57 18 16 27 -298 -22 -367 -58 -16 -9 -135 -109 -263
-223 -127 -114 -384 -344 -570 -510 -186 -166 -345 -302 -353 -302 -13 0 -15
9 -9 53 20 150 240 764 332 927 34 59 72 100 95 100 10 0 18 5 18 10 0 16 -69
11 -130 -9z"/>
<path d="M3192 3256 c-27 -22 -55 -35 -86 -39 -137 -19 -317 -157 -405 -310
-67 -118 -92 -245 -52 -267 54 -28 120 4 233 115 61 60 79 74 74 55 -4 -14 -9
-48 -13 -77 -21 -189 167 -190 370 -2 41 38 77 69 80 69 3 0 -12 -34 -34 -76
-21 -41 -39 -83 -39 -93 0 -23 28 -48 39 -35 5 5 63 92 131 193 139 208 218
298 293 335 64 33 104 33 152 1 34 -24 39 -25 55 -10 24 22 54 91 47 109 -11
29 -88 20 -163 -19 -72 -38 -164 -103 -202 -143 -37 -39 -36 -19 3 54 38 71
41 100 13 118 -27 17 -50 -13 -146 -187 -68 -124 -101 -174 -152 -226 -140
-144 -318 -231 -350 -172 -29 55 4 167 116 399 l74 155 40 -7 c48 -7 52 1 9
16 -31 11 -32 17 -14 61 12 29 -29 20 -73 -17z m-52 -64 c0 -11 -96 -177 -141
-243 -102 -151 -214 -269 -256 -269 -21 0 -15 68 11 132 60 145 201 323 291
364 50 24 95 31 95 16z"/>
<path d="M5171 3218 c-38 -51 -87 -136 -186 -322 -73 -136 -147 -206 -219
-206 -70 0 -35 99 128 365 61 99 66 110 47 113 -42 7 -76 -23 -148 -128 -92
-134 -154 -255 -160 -312 -5 -39 -2 -47 18 -62 37 -26 90 -20 165 19 37 19 69
34 70 32 9 -9 -360 -580 -476 -737 -339 -458 -653 -634 -903 -507 -67 35 -99
73 -119 141 -10 39 -12 40 -19 16 -4 -14 -7 -45 -8 -69 -3 -145 95 -231 264
-231 174 0 327 88 543 315 159 167 340 416 645 892 85 133 198 297 250 365
103 134 197 275 197 296 0 19 -29 72 -40 72 -5 0 -27 -24 -49 -52z"/>
<path d="M4257 3208 c-14 -18 -47 -73 -75 -123 -27 -49 -73 -130 -102 -180
-75 -128 -140 -261 -140 -284 0 -24 13 -33 33 -25 8 3 55 67 103 142 157 245
258 359 354 399 45 20 105 11 137 -19 l25 -23 29 35 c55 65 47 110 -20 110
-63 0 -169 -59 -281 -154 -30 -25 -55 -44 -57 -42 -2 1 13 34 32 71 40 77 43
118 8 123 -14 2 -29 -7 -46 -30z"/>
<path d="M6090 3197 c-34 -27 -43 -46 -30 -62 11 -13 8 -15 -16 -16 -18 -1 -9
-5 21 -9 42 -6 58 -3 97 16 62 32 93 31 115 -2 17 -26 17 -27 -15 -55 -43 -38
-92 -40 -92 -4 0 30 30 48 65 39 20 -5 23 -9 15 -20 -7 -7 -24 -15 -38 -17
-20 -4 -18 -4 7 -3 40 1 66 30 41 46 -45 29 -117 -9 -106 -55 5 -19 1 -25 -26
-34 -17 -6 -32 -11 -33 -11 -1 0 0 11 2 23 10 49 -65 78 -100 39 -25 -28 -21
-32 26 -31 l42 2 -39 6 -39 6 26 14 c51 27 104 -24 62 -59 -12 -10 -23 -9 -58
4 -23 9 -48 20 -56 25 -20 13 -5 60 22 71 14 6 17 9 6 9 -23 1 -51 -34 -47
-60 4 -30 58 -61 107 -63 28 0 41 -6 47 -21 7 -14 17 -19 39 -18 22 2 26 0 15
-7 -27 -17 -67 -11 -83 13 l-16 22 6 -23 c10 -43 57 -48 122 -13 24 14 27 43
6 64 -13 13 -10 16 23 20 20 3 50 8 66 11 49 12 69 -23 45 -78 -21 -45 -84
-39 -77 7 4 28 34 45 49 30 10 -10 8 -17 -7 -34 -19 -22 -19 -22 4 -10 31 16
29 49 -5 57 -31 8 -55 -18 -51 -55 5 -36 32 -49 65 -31 52 29 56 117 6 130
-17 4 -20 9 -13 20 14 22 12 34 -11 59 -19 20 -28 22 -66 17 -33 -4 -45 -2
-49 9 -8 19 -35 19 -60 0 -18 -14 -17 -14 9 -3 35 15 58 -2 37 -27 -15 -19
-50 -19 -75 -1 -18 13 -18 14 8 40 29 29 54 33 83 11 29 -22 43 -17 15 5 -26
22 -68 26 -91 7z m95 -211 c0 -11 -6 -21 -12 -23 -7 -3 -13 3 -13 13 0 16 -1
16 -14 -2 -14 -18 -15 -18 -33 -1 -16 15 -16 19 -3 27 8 6 29 9 45 8 22 -2 30
-8 30 -22z"/>
<path d="M5932 2969 c-1 -19 4 -43 11 -53 13 -17 81 -38 91 -28 11 11 6 68 -8
87 -13 18 -15 18 -40 2 -27 -18 -34 -41 -16 -52 5 -3 8 0 5 7 -7 20 10 40 31
36 13 -2 20 -13 22 -36 3 -28 0 -32 -20 -32 -39 0 -66 26 -71 68 l-4 37 -1
-36z"/>
<path d="M6082 2848 c16 -16 38 -28 51 -27 19 1 18 2 -7 9 -16 5 -38 17 -50
27 -12 10 -9 6 6 -9z"/>
<path d="M6002 2730 c0 -14 2 -19 5 -12 2 6 2 18 0 25 -3 6 -5 1 -5 -13z"/>
<path d="M2081 2128 c-1 -70 -7 -118 -14 -127 -9 -12 -9 -13 1 -7 6 4 12 2 12
-3 0 -6 6 -11 13 -11 9 0 11 31 9 130 -2 71 -7 130 -11 130 -5 0 -9 -50 -10
-112z"/>
<path d="M2622 2186 c-2 -47 -5 -57 -14 -48 -7 7 -17 12 -22 12 -6 0 0 -7 12
-16 28 -20 31 -97 5 -127 -10 -11 -12 -17 -4 -12 8 4 17 2 22 -6 4 -7 9 -11
11 -9 2 3 1 64 -2 135 -3 72 -7 103 -8 71z"/>
<path d="M3020 2230 c0 -5 5 -10 10 -10 6 0 10 5 10 10 0 6 -4 10 -10 10 -5 0
-10 -4 -10 -10z"/>
<path d="M856 2150 c12 -5 25 -21 28 -37 26 -104 39 -138 47 -118 10 27 11 37
1 31 -5 -3 -14 16 -20 42 -6 26 -13 54 -17 64 -4 11 0 18 12 21 10 3 -2 5 -27
5 -35 1 -40 -1 -24 -8z"/>
<path d="M967 2140 c-3 -11 -2 -18 2 -15 5 2 18 -29 30 -70 12 -41 23 -75 25
-75 2 0 6 11 8 25 3 13 2 23 -2 20 -3 -2 -15 27 -24 66 -19 71 -30 84 -39 49z"/>
<path d="M1058 2153 c12 -2 30 -2 40 0 9 3 -1 5 -23 4 -22 0 -30 -2 -17 -4z"/>
<path d="M1513 2153 c9 -2 23 -2 30 0 6 3 -1 5 -18 5 -16 0 -22 -2 -12 -5z"/>
<path d="M2018 2153 c7 -3 16 -2 19 1 4 3 -2 6 -13 5 -11 0 -14 -3 -6 -6z"/>
<path d="M2548 2153 c7 -3 16 -2 19 1 4 3 -2 6 -13 5 -11 0 -14 -3 -6 -6z"/>
<path d="M3014 2147 c16 -11 18 -25 14 -90 -2 -48 0 -77 7 -77 6 0 9 33 7 90
-3 84 -5 90 -25 90 -20 0 -20 -1 -3 -13z"/>
<path d="M3413 2153 c14 -4 17 -17 17 -89 0 -60 3 -84 13 -84 9 0 11 19 9 69
-3 62 -1 70 19 85 13 9 19 16 13 16 -5 0 -15 -5 -22 -12 -9 -9 -12 -8 -12 5 0
12 -8 17 -27 16 -17 -1 -21 -3 -10 -6z"/>
<path d="M3508 2153 c6 -2 18 -2 25 0 6 3 1 5 -13 5 -14 0 -19 -2 -12 -5z"/>
<path d="M4018 2153 c6 -2 18 -2 25 0 6 3 1 5 -13 5 -14 0 -19 -2 -12 -5z"/>
<path d="M4097 2149 c-9 -5 -22 -7 -28 -3 -8 5 -8 1 0 -14 18 -33 13 -69 -11
-86 -12 -9 -17 -16 -11 -16 24 0 54 52 48 82 -5 21 -3 28 9 28 9 0 16 5 16 10
0 12 0 12 -23 -1z"/>
<path d="M1450 2123 c-17 -22 -21 -37 -17 -67 6 -43 20 -61 57 -70 23 -6 23
-6 5 5 -50 29 -62 95 -23 136 12 13 17 23 10 23 -6 0 -20 -12 -32 -27z"/>
<path d="M1570 2132 c6 -13 9 -30 6 -38 -3 -8 1 -14 10 -14 18 0 10 37 -13 60
-14 13 -14 12 -3 -8z"/>
<path d="M1960 2130 c-29 -29 -27 -94 5 -125 13 -14 29 -25 36 -25 6 0 0 9
-14 20 -43 34 -44 92 -2 133 9 10 12 17 6 17 -6 0 -20 -9 -31 -20z"/>
<path d="M2491 2124 c-12 -15 -21 -41 -21 -58 0 -33 24 -76 41 -76 6 0 3 10
-5 22 -23 33 -20 87 6 115 12 13 17 23 10 23 -6 0 -20 -12 -31 -26z"/>
<path d="M3558 2138 c7 -7 12 -42 12 -85 0 -42 4 -73 10 -73 6 0 10 31 10 73
0 69 -10 97 -34 97 -6 0 -5 -5 2 -12z"/>
<path d="M3980 2131 c-15 -30 -12 -66 8 -84 26 -24 36 -21 12 3 -22 22 -26 51
-10 81 6 10 8 19 6 19 -3 0 -10 -9 -16 -19z"/>
<path d="M3958 1982 c-4 -15 2 -17 48 -14 34 3 64 -2 84 -11 31 -16 39 -10 18
11 -7 7 -31 12 -54 12 -24 0 -54 4 -67 9 -20 8 -26 6 -29 -7z"/>
<path d="M4003 1893 c15 -2 39 -2 55 0 15 2 2 4 -28 4 -30 0 -43 -2 -27 -4z"/>
<path d="M5330 597 c0 -77 -4 -117 -12 -126 -10 -11 -10 -13 0 -7 6 4 12 2 12
-3 0 -6 6 -11 13 -11 9 0 11 31 9 130 -4 161 -22 175 -22 17z"/>
<path d="M5268 623 c7 -3 16 -2 19 1 4 3 -2 6 -13 5 -11 0 -14 -3 -6 -6z"/>
<path d="M5723 623 c14 -4 17 -17 17 -89 0 -97 17 -114 22 -21 5 99 0 117 -31
116 -17 -1 -20 -3 -8 -6z"/>
<path d="M5840 626 c0 -2 7 -7 16 -10 8 -3 12 -2 9 4 -6 10 -25 14 -25 6z"/>
<path d="M6260 623 c-51 -19 -72 -80 -46 -132 9 -17 21 -31 25 -31 5 0 17 -3
26 -6 9 -4 2 7 -15 24 -53 53 -33 125 40 142 27 6 29 8 10 8 -14 0 -32 -2 -40
-5z"/>
<path d="M6724 614 c-10 -8 -12 -12 -4 -8 8 4 30 11 50 15 35 7 35 7 4 8 -16
0 -39 -6 -50 -15z"/>
<path d="M6836 614 c-3 -9 -2 -23 4 -32 7 -14 9 -10 10 16 0 35 -5 41 -14 16z"/>
<path d="M7238 623 c7 -3 16 -2 19 1 4 3 -2 6 -13 5 -11 0 -14 -3 -6 -6z"/>
<path d="M7285 620 c11 -7 26 -20 33 -28 11 -14 12 -13 12 4 0 12 -6 21 -12
21 -7 0 -22 4 -33 8 l-20 7 20 -12z"/>
<path d="M5210 600 c-29 -29 -27 -94 5 -125 13 -14 29 -25 35 -25 6 0 -1 11
-16 24 -37 31 -38 84 -4 121 28 29 9 34 -20 5z"/>
<path d="M6343 606 c4 -6 7 -20 7 -33 0 -13 5 -23 10 -23 16 0 12 26 -7 47
-10 10 -15 14 -10 9z"/>
<path d="M7193 586 c2 -20 6 -23 85 -59 28 -13 52 -20 52 -15 0 5 -29 22 -64
38 -35 16 -67 35 -70 42 -3 7 -5 4 -3 -6z"/>
<path d="M6713 576 c2 -6 30 -24 63 -40 32 -15 62 -33 66 -40 5 -7 8 -5 8 6 0
12 -23 29 -70 51 -39 19 -69 29 -67 23z"/>
<path d="M6711 474 c0 -16 3 -23 6 -16 2 6 10 9 16 5 7 -4 5 2 -3 13 -8 10
-16 21 -17 23 -2 2 -3 -9 -2 -25z"/>
<path d="M7191 474 c0 -16 3 -23 6 -16 2 6 10 9 16 5 7 -4 5 2 -3 13 -8 10
-16 21 -17 23 -2 2 -3 -9 -2 -25z"/>
<path d="M6826 465 c-11 -8 -15 -15 -9 -15 6 0 16 7 23 15 16 19 11 19 -14 0z"/>
<path d="M7306 465 c-11 -8 -15 -15 -9 -15 6 0 16 7 23 15 16 19 11 19 -14 0z"/>
</g>
</svg>
